<?xml version="1.0" encoding="UTF-8" standalone="no"?>
<!-- Created with Inkscape (http://www.inkscape.org/) -->

<svg
   xmlns:dc="http://purl.org/dc/elements/1.1/"
   xmlns:cc="http://creativecommons.org/ns#"
   xmlns:rdf="http://www.w3.org/1999/02/22-rdf-syntax-ns#"
   xmlns:svg="http://www.w3.org/2000/svg"
   xmlns="http://www.w3.org/2000/svg"
   xmlns:sodipodi="http://sodipodi.sourceforge.net/DTD/sodipodi-0.dtd"
   xmlns:inkscape="http://www.inkscape.org/namespaces/inkscape"
   width="210mm"
   height="210mm"
   viewBox="0 0 210 210"
   version="1.1"
   id="svg8"
   inkscape:version="0.92.3 (2405546, 2018-03-11)"
   sodipodi:docname="GHost.svg">
  <title
     id="title10">GHOST</title>
  <defs
     id="defs2" />
  <sodipodi:namedview
     id="base"
     pagecolor="#ffffff"
     bordercolor="#666666"
     borderopacity="1.0"
     inkscape:pageopacity="0.0"
     inkscape:pageshadow="2"
     inkscape:zoom="0.35"
     inkscape:cx="350"
     inkscape:cy="560"
     inkscape:document-units="mm"
     inkscape:current-layer="layer1"
     showgrid="false"
     inkscape:window-width="1366"
     inkscape:window-height="705"
     inkscape:window-x="-8"
     inkscape:window-y="-8"
     inkscape:window-maximized="1" />
  <metadata
     id="metadata5">
    <rdf:RDF>
      <cc:Work
         rdf:about="">
        <dc:format>image/svg+xml</dc:format>
        <dc:type
           rdf:resource="http://purl.org/dc/dcmitype/StillImage" />
        <dc:title>GHOST</dc:title>
        <cc:license
           rdf:resource="http://creativecommons.org/licenses/by-nd/4.0/" />
      </cc:Work>
      <cc:License
         rdf:about="http://creativecommons.org/licenses/by-nd/4.0/">
        <cc:permits
           rdf:resource="http://creativecommons.org/ns#Reproduction" />
        <cc:permits
           rdf:resource="http://creativecommons.org/ns#Distribution" />
        <cc:requires
           rdf:resource="http://creativecommons.org/ns#Notice" />
        <cc:requires
           rdf:resource="http://creativecommons.org/ns#Attribution" />
      </cc:License>
    </rdf:RDF>
  </metadata>
  <g
     inkscape:label="Ebene 1"
     inkscape:groupmode="layer"
     id="layer1"
     transform="translate(0,-87)">
    <path
       style="fill:#0000ff;stroke:#000000;stroke-width:0.99999994;stroke-opacity:1"
       d="M 395.71484 33.701172 A 370.00001 360 0 0 0 25.714844 393.70117 A 370.00001 360 0 0 0 395.71484 753.70117 A 370.00001 360 0 0 0 765.71484 393.70117 A 370.00001 360 0 0 0 395.71484 33.701172 z M 392.85156 70.791016 A 42.510345 62.37256 0 0 1 435.36133 133.16211 A 42.510345 62.37256 0 0 1 422.39453 178 L 427.85938 177.34375 L 427.98633 185.13867 L 642.91211 185.13867 L 642.91211 239.71484 L 428.87695 239.71484 L 432.86133 484.00781 L 565.39258 702.3125 L 380.34766 515.19531 L 272.82227 629.54492 L 370.3457 484.00781 L 364.21289 239.71484 L 362.89844 239.71484 L 362.89844 239.77344 L 162.74023 239.77344 L 162.74023 174.6875 L 361.19922 174.6875 A 42.510345 62.37256 0 0 1 350.33984 133.16211 A 42.510345 62.37256 0 0 1 392.85156 70.791016 z M 362.89844 177.35938 L 362.89844 185.13281 L 368.66797 184.44141 A 42.510345 62.37256 0 0 1 362.89844 177.35938 z M 110.61719 296.21094 L 189.80664 436.15039 L 180.93555 436.49609 L 180.93555 441.58008 L 61.955078 441.58008 L 61.955078 441.10938 L 50.59375 441.55078 L 95.607422 296.79492 L 110.61719 296.21094 z M 106.72461 326.59961 L 77.333984 424.25586 L 160.94336 424.25586 L 106.72461 326.59961 z "
       transform="matrix(0.26458333,0,0,0.26458333,0,87)"
       id="path12" />
    <rect
       style="fill:#00ffff;stroke:#000000;stroke-width:0.25958049;stroke-opacity:1"
       id="rect26"
       width="14.363094"
       height="116.42162"
       x="62.744049"
       y="105.73911" />
    <g
       aria-label="&lt;"
       transform="scale(1.3389234,0.7468687)"
       style="font-style:normal;font-weight:normal;font-size:106.09925842px;line-height:1.25;font-family:sans-serif;letter-spacing:0px;word-spacing:0px;fill:#000000;fill-opacity:1;stroke:none;stroke-width:2.65248132"
       id="text30" />
  </g>
</svg>
